<svg width="464" height="391" viewBox="0 0 464 391" fill="none" xmlns="http://www.w3.org/2000/svg">
<path fill-rule="evenodd" clip-rule="evenodd" d="M227.871 1.1978C271.279 -3.4559 314.454 5.61363 353.295 25.569C397.646 48.3546 453.661 72.909 462.914 121.953C472.241 171.392 419.055 208.368 396.24 253.196C378.131 288.779 376.676 335.656 343.144 357.282C310.006 378.655 267.065 357.587 227.871 361.785C181.486 366.753 133.902 406.822 93.1711 384.053C52.8973 361.54 55.0161 303.146 43.1388 258.52C31.9964 216.655 11.2024 173.446 26.3122 132.847C41.2347 92.752 84.759 73.8987 120.551 50.5208C154.346 28.4478 187.751 5.49891 227.871 1.1978Z" fill="#FFAE52"/>
<path fill-rule="evenodd" clip-rule="evenodd" d="M277 259.675C292.465 248.541 309.508 233.736 310.123 229.24C310.181 228.741 310.153 228.066 309.42 227.156C305.445 222.161 289.133 219.018 279.806 218.224L280.332 212.027C283.08 212.261 307.286 214.552 314.246 223.247C315.883 225.304 316.583 227.655 316.261 230.064C315.238 237.789 296.617 252.8 285.829 260.879C287.085 260.761 288.314 260.819 289.365 261.144C293.78 262.525 293.546 265.932 293.546 265.932C293.546 265.932 298.692 267.636 299.012 270.22C299.335 272.775 297.435 278.768 292.231 279.474C279.398 281.178 277.847 260.879 277 259.675Z" fill="#F9F3ED"/>
<path fill-rule="evenodd" clip-rule="evenodd" d="M195 315.226C141.193 315.226 97.5918 322.354 97.5918 331.174C97.5918 339.995 141.193 347.123 195 347.123C248.807 347.123 292.409 339.995 292.409 331.174C292.409 322.354 248.779 315.226 195 315.226Z" fill="url(#paint0_radial)"/>
<path fill-rule="evenodd" clip-rule="evenodd" d="M166.263 277.699L160.482 278.438L166.373 327.818C163.648 327.135 160.235 326.452 157.453 326.367C151.865 326.168 148.617 332.113 150.655 332.113H172.182C173.2 332.113 172.126 326.88 166.263 277.699Z" fill="#F9F3ED"/>
<path fill-rule="evenodd" clip-rule="evenodd" d="M236.202 326.499C232.708 326.555 229.095 326.932 226.135 327.396L232.116 278.423L225.897 277.699C225.869 277.843 219.206 332.113 219.354 332.113C220.066 332.113 241.857 332.055 244.669 332.055C247.483 332.055 243.515 326.382 236.202 326.499Z" fill="#F9F3ED"/>
<path fill-rule="evenodd" clip-rule="evenodd" d="M91.3704 243.887L88.2308 57.7799C87.0207 -13.6216 295.286 -20.1492 294.278 58.6993L291.801 236.498C290.85 312.728 92.5224 312.614 91.3704 243.887Z" fill="#F9F3ED"/>
<path fill-rule="evenodd" clip-rule="evenodd" d="M171.955 26.5821C175.357 35.7672 162.889 39.5175 148.765 44.7206C134.64 49.9218 124.206 54.6314 120.807 45.4467C117.405 36.2614 126.125 24.5763 140.249 19.3736C154.373 14.1707 168.585 17.3971 171.955 26.5821Z" fill="#EBDDCE"/>
<path fill-rule="evenodd" clip-rule="evenodd" d="M121.496 65.6625C119.868 72.2072 114.126 76.2563 108.67 74.7346C103.213 73.181 100.128 66.6063 101.786 60.0616C103.413 53.5169 109.155 49.4377 114.612 50.9913C120.068 52.5431 123.154 59.1178 121.496 65.6625Z" fill="#EBDDCE"/>
<path fill-rule="evenodd" clip-rule="evenodd" d="M188.993 253.31C188.646 253.31 188.299 253.437 188.007 253.668C187.393 254.179 187.34 255.074 187.874 255.663C188.007 255.79 190.886 258.884 194.994 258.935C197.501 258.96 199.929 257.886 202.088 255.687C202.648 255.124 202.622 254.229 202.036 253.693C201.45 253.156 200.515 253.182 199.955 253.745C198.381 255.329 196.729 256.122 195.049 256.096C192.274 256.046 190.115 253.796 190.087 253.77C189.821 253.488 189.42 253.31 188.993 253.31Z" fill="#231F20"/>
<path fill-rule="evenodd" clip-rule="evenodd" d="M238.085 220.47C238.085 228.246 244.791 234.543 253.071 234.543C261.351 234.543 268.057 228.246 268.057 220.47C268.057 212.695 261.351 206.398 253.071 206.398C244.791 206.398 238.085 212.695 238.085 220.47Z" fill="#DFDFDF"/>
<path fill-rule="evenodd" clip-rule="evenodd" d="M241.831 220.47C241.831 226.156 246.458 230.79 252.134 230.79C257.838 230.79 262.437 226.184 262.437 220.47C262.437 214.785 257.838 210.15 252.134 210.15C246.43 210.15 241.831 214.785 241.831 220.47Z" fill="#231F20"/>
<path fill-rule="evenodd" clip-rule="evenodd" d="M123.817 220.47C123.817 228.246 130.523 234.543 138.803 234.543C147.083 234.543 153.789 228.246 153.789 220.47C153.789 212.695 147.083 206.398 138.803 206.398C130.523 206.398 123.817 212.695 123.817 220.47Z" fill="#DFDFDF"/>
<path fill-rule="evenodd" clip-rule="evenodd" d="M127.564 220.47C127.564 226.156 132.163 230.79 137.867 230.79C143.571 230.79 148.169 226.184 148.169 220.47C148.169 214.785 143.571 210.15 137.867 210.15C132.191 210.15 127.564 214.785 127.564 220.47Z" fill="#231F20"/>
<path fill-rule="evenodd" clip-rule="evenodd" d="M32.8925 184.194C43.9275 191.494 57.4875 189.063 60.955 188.25C61.27 185.816 60.955 179.734 52.125 174.056L53.7025 170C67.5775 178.922 64.1075 190.278 63.7925 190.684L63.4775 190.278C72.6225 231.238 80.19 235.7 82.7125 235.7C88.3875 235.7 93.7475 219.478 95.64 211.366L101 213.394C100.37 216.234 94.0625 243 82.7125 243C73.8825 243 66.315 227.994 59.0625 196.363C48.3425 206.906 36.675 209.744 36.045 210.15L35.415 206.094C35.415 206.094 41.09 204.472 48.0275 200.416C39.83 203.662 34.1525 204.066 32.5775 204.066C32.2625 204.066 32.2625 204.066 32.2625 204.066V199.606C32.2625 199.606 36.36 199.606 42.9825 197.578C42.3525 197.578 42.035 197.578 41.72 197.578C35.73 197.578 31.63 196.363 31.315 196.363L31.945 192.306C31.945 192.306 37.6225 193.928 45.19 193.116C40.775 192.306 35.73 191.087 31 187.844L32.8925 184.194Z" fill="#F9F3ED"/>
<defs>
<radialGradient id="paint0_radial" cx="0" cy="0" r="1" gradientUnits="userSpaceOnUse" gradientTransform="translate(195 331.174) rotate(90) scale(15.9489 97.4085)">
<stop stop-opacity="0.47"/>
<stop offset="1" stop-opacity="0"/>
</radialGradient>
</defs>
</svg>
